<?xml version="1.0" encoding="utf-8"?>
<!-- Generator: Adobe Illustrator 24.3.0, SVG Export Plug-In . SVG Version: 6.00 Build 0)  -->
<svg version="1.1" id="圖層_1" xmlns="http://www.w3.org/2000/svg" xmlns:xlink="http://www.w3.org/1999/xlink" x="0px" y="0px"
	 viewBox="0 0 18 20" style="enable-background:new 0 0 18 20;" xml:space="preserve">
<style type="text/css">
	.st0{fill:none;}
	.st1{fill:#585858;}
</style>
<path class="st0" d="M-3-2h24v24H-3V-2z"/>
<path class="st1" d="M9,0C4,0,0,4,0,9c0,4.2,2.8,7.7,6.7,8.7L9,20l2.3-2.3c3.9-1,6.7-4.5,6.7-8.7C18,4,14,0,9,0z M9,2
	c1.7,0,3,1.3,3,3s-1.3,3-3,3S6,6.7,6,5S7.3,2,9,2z M9,16.3c-2.5,0-4.7-1.3-6-3.2c0-2,4-3.1,6-3.1s6,1.1,6,3.1
	C13.7,15,11.5,16.3,9,16.3z"/>
</svg>
